<?xml version="1.0" encoding="UTF-8" standalone="no"?>
<!-- Created with Inkscape (http://www.inkscape.org/) -->

<svg
   xmlns:dc="http://purl.org/dc/elements/1.1/"
   xmlns:cc="http://creativecommons.org/ns#"
   xmlns:rdf="http://www.w3.org/1999/02/22-rdf-syntax-ns#"
   xmlns:svg="http://www.w3.org/2000/svg"
   xmlns="http://www.w3.org/2000/svg"
   xmlns:xlink="http://www.w3.org/1999/xlink"
   xmlns:sodipodi="http://sodipodi.sourceforge.net/DTD/sodipodi-0.dtd"
   xmlns:inkscape="http://www.inkscape.org/namespaces/inkscape"
   width="210mm"
   height="297mm"
   id="svg12200"
   version="1.1"
   inkscape:version="0.47pre2 r22153"
   sodipodi:docname="2009-11-05-drehkristall-verfahren.svg">
  <defs
     id="defs12202">
    <marker
       inkscape:stockid="Arrow1Send"
       orient="auto"
       refY="0.0"
       refX="0.0"
       id="Arrow1Send"
       style="overflow:visible;">
      <path
         id="path3608"
         d="M 0.0,0.0 L 5.0,-5.0 L -12.5,0.0 L 5.0,5.0 L 0.0,0.0 z "
         style="fill-rule:evenodd;stroke:#000000;stroke-width:1.0pt;marker-start:none;"
         transform="scale(0.2) rotate(180) translate(6,0)" />
    </marker>
    <marker
       inkscape:stockid="Arrow1Lend"
       orient="auto"
       refY="0.0"
       refX="0.0"
       id="Arrow1Lend"
       style="overflow:visible;">
      <path
         id="path3596"
         d="M 0.0,0.0 L 5.0,-5.0 L -12.5,0.0 L 5.0,5.0 L 0.0,0.0 z "
         style="fill-rule:evenodd;stroke:#000000;stroke-width:1.0pt;marker-start:none;"
         transform="scale(0.8) rotate(180) translate(12.5,0)" />
    </marker>
    <inkscape:perspective
       sodipodi:type="inkscape:persp3d"
       inkscape:vp_x="0 : 526.18109 : 1"
       inkscape:vp_y="0 : 1000 : 0"
       inkscape:vp_z="744.09448 : 526.18109 : 1"
       inkscape:persp3d-origin="372.04724 : 350.78739 : 1"
       id="perspective12208" />
    <inkscape:perspective
       id="perspective13831"
       inkscape:persp3d-origin="0.5 : 0.33333333 : 1"
       inkscape:vp_z="1 : 0.5 : 1"
       inkscape:vp_y="0 : 1000 : 0"
       inkscape:vp_x="0 : 0.5 : 1"
       sodipodi:type="inkscape:persp3d" />
  </defs>
  <sodipodi:namedview
     id="base"
     pagecolor="#ffffff"
     bordercolor="#666666"
     borderopacity="1.0"
     inkscape:pageopacity="0.0"
     inkscape:pageshadow="2"
     inkscape:zoom="0.7"
     inkscape:cx="337.24622"
     inkscape:cy="1033.4507"
     inkscape:document-units="px"
     inkscape:current-layer="layer1"
     showgrid="false"
     inkscape:window-width="1280"
     inkscape:window-height="752"
     inkscape:window-x="0"
     inkscape:window-y="0"
     inkscape:window-maximized="0" />
  <metadata
     id="metadata12205">
    <rdf:RDF>
      <cc:Work
         rdf:about="">
        <dc:format>image/svg+xml</dc:format>
        <dc:type
           rdf:resource="http://purl.org/dc/dcmitype/StillImage" />
        <dc:title></dc:title>
      </cc:Work>
    </rdf:RDF>
  </metadata>
  <g
     inkscape:label="Ebene 1"
     inkscape:groupmode="layer"
     id="layer1">
    <path
       sodipodi:type="arc"
       style="fill:none;stroke:#000000;stroke-width:0.5;stroke-linecap:square;stroke-linejoin:round;stroke-miterlimit:4;stroke-opacity:1;stroke-dasharray:none;stroke-dashoffset:0"
       id="path12210"
       sodipodi:cx="147.5"
       sodipodi:cy="152.71933"
       sodipodi:rx="101.07143"
       sodipodi:ry="101.07143"
       d="m 248.57143,152.71933 a 101.07143,101.07143 0 1 1 -202.142856,0 101.07143,101.07143 0 1 1 202.142856,0 z"
       transform="matrix(0.70481199,0,0,0.70481199,13.631361,13.561213)"
       inkscape:export-filename="/Users/juliangethmann/Documents/uni-ka/phy/ph5/ex5script09/images/2009-11-05-drehkristall-verfahren.png"
       inkscape:export-xdpi="90"
       inkscape:export-ydpi="90" />
    <path
       style="fill:none;stroke:#000000;stroke-width:0.7006585px;stroke-linecap:butt;stroke-linejoin:miter;stroke-opacity:1;marker-end:url(#Arrow1Lend)"
       d="m 118.0493,121.49811 70.09883,0"
       id="path13288"
       inkscape:export-filename="/Users/juliangethmann/Documents/uni-ka/phy/ph5/ex5script09/images/2009-11-05-drehkristall-verfahren.png"
       inkscape:export-xdpi="90"
       inkscape:export-ydpi="90" />
    <g
       id="g13674"
       transform="matrix(0.70481199,0,0,0.70481199,13.631361,13.561213)"
       inkscape:export-filename="/Users/juliangethmann/Documents/uni-ka/phy/ph5/ex5script09/images/2009-11-05-drehkristall-verfahren.png"
       inkscape:export-xdpi="90"
       inkscape:export-ydpi="90">
      <text
         id="text13476"
         y="173.02438"
         x="183.09015"
         style="font-size:20px;font-style:normal;font-variant:normal;font-weight:normal;font-stretch:normal;fill:#000000;fill-opacity:1;stroke:none;font-family:Sans;-inkscape-font-specification:Helvetica"
         xml:space="preserve"><tspan
           y="173.02438"
           x="183.09015"
           id="tspan13478"
           sodipodi:role="line">k</tspan></text>
      <text
         id="text13480"
         y="176.81245"
         x="194.70689"
         style="font-size:10px;font-style:normal;font-variant:normal;font-weight:normal;font-stretch:normal;fill:#000000;fill-opacity:1;stroke:none;font-family:Sans;-inkscape-font-specification:Helvetica"
         xml:space="preserve"><tspan
           y="176.81245"
           x="194.70689"
           id="tspan13482"
           sodipodi:role="line">0</tspan></text>
      <path
         id="path13484"
         d="m 185.40656,155.8518 10.6066,0"
         style="fill:none;stroke:#000000;stroke-width:1px;stroke-linecap:square;stroke-linejoin:miter;stroke-opacity:1;marker-end:url(#Arrow1Send)" />
    </g>
    <g
       id="g13934"
       transform="matrix(0.64215472,-0.29051206,0.29051206,0.64215472,0.02654511,121.46534)"
       inkscape:export-filename="/Users/juliangethmann/Documents/uni-ka/phy/ph5/ex5script09/images/2009-11-05-drehkristall-verfahren.png"
       inkscape:export-xdpi="90"
       inkscape:export-ydpi="90">
      <path
         transform="matrix(0.93565394,0.35291884,-0.35291884,0.93565394,40.827341,-101.96061)"
         d="m 269.71074,46.755325 c 0,1.952622 -1.58292,3.535534 -3.53554,3.535534 -1.95262,0 -3.53553,-1.582912 -3.53553,-3.535534 0,-1.952621 1.58291,-3.535534 3.53553,-3.535534 1.95262,0 3.53554,1.582913 3.53554,3.535534 z"
         sodipodi:ry="3.5355339"
         sodipodi:rx="3.5355339"
         sodipodi:cy="46.755325"
         sodipodi:cx="266.1752"
         id="path13914"
         style="fill:#000000;fill-opacity:1;stroke:#000000;stroke-width:0.5;stroke-linecap:square;stroke-linejoin:round;stroke-miterlimit:4;stroke-opacity:1;stroke-dasharray:none;stroke-dashoffset:0"
         sodipodi:type="arc" />
      <use
         height="1052.3622"
         width="744.09448"
         transform="translate(0,31.090573)"
         id="use13916"
         xlink:href="#path13914"
         y="0"
         x="0" />
      <path
         transform="matrix(0.93565394,0.35291884,-0.35291884,0.93565394,69.016001,-70.870037)"
         sodipodi:type="arc"
         style="fill:#000000;fill-opacity:1;stroke:#000000;stroke-width:0.5;stroke-linecap:square;stroke-linejoin:round;stroke-miterlimit:4;stroke-opacity:1;stroke-dasharray:none;stroke-dashoffset:0"
         id="path13920"
         sodipodi:cx="266.1752"
         sodipodi:cy="46.755325"
         sodipodi:rx="3.5355339"
         sodipodi:ry="3.5355339"
         d="m 269.71074,46.755325 c 0,1.952622 -1.58292,3.535534 -3.53554,3.535534 -1.95262,0 -3.53553,-1.582912 -3.53553,-3.535534 0,-1.952621 1.58291,-3.535534 3.53553,-3.535534 1.95262,0 3.53554,1.582913 3.53554,3.535534 z" />
      <path
         transform="matrix(0.93565394,0.35291884,-0.35291884,0.93565394,69.016001,-101.96061)"
         sodipodi:type="arc"
         style="fill:#000000;fill-opacity:1;stroke:#000000;stroke-width:0.5;stroke-linecap:square;stroke-linejoin:round;stroke-miterlimit:4;stroke-opacity:1;stroke-dasharray:none;stroke-dashoffset:0"
         id="path13922"
         sodipodi:cx="266.1752"
         sodipodi:cy="46.755325"
         sodipodi:rx="3.5355339"
         sodipodi:ry="3.5355339"
         d="m 269.71074,46.755325 c 0,1.952622 -1.58292,3.535534 -3.53554,3.535534 -1.95262,0 -3.53553,-1.582912 -3.53553,-3.535534 0,-1.952621 1.58291,-3.535534 3.53553,-3.535534 1.95262,0 3.53554,1.582913 3.53554,3.535534 z" />
      <path
         transform="matrix(0.93565394,0.35291884,-0.35291884,0.93565394,97.20466,-101.96061)"
         sodipodi:type="arc"
         style="fill:#000000;fill-opacity:1;stroke:#000000;stroke-width:0.5;stroke-linecap:square;stroke-linejoin:round;stroke-miterlimit:4;stroke-opacity:1;stroke-dasharray:none;stroke-dashoffset:0"
         id="path13924"
         sodipodi:cx="266.1752"
         sodipodi:cy="46.755325"
         sodipodi:rx="3.5355339"
         sodipodi:ry="3.5355339"
         d="m 269.71074,46.755325 c 0,1.952622 -1.58292,3.535534 -3.53554,3.535534 -1.95262,0 -3.53553,-1.582912 -3.53553,-3.535534 0,-1.952621 1.58291,-3.535534 3.53553,-3.535534 1.95262,0 3.53554,1.582913 3.53554,3.535534 z" />
      <path
         transform="matrix(0.93565394,0.35291884,-0.35291884,0.93565394,97.20466,-70.870037)"
         sodipodi:type="arc"
         style="fill:#000000;fill-opacity:1;stroke:#000000;stroke-width:0.5;stroke-linecap:square;stroke-linejoin:round;stroke-miterlimit:4;stroke-opacity:1;stroke-dasharray:none;stroke-dashoffset:0"
         id="path13926"
         sodipodi:cx="266.1752"
         sodipodi:cy="46.755325"
         sodipodi:rx="3.5355339"
         sodipodi:ry="3.5355339"
         d="m 269.71074,46.755325 c 0,1.952622 -1.58292,3.535534 -3.53554,3.535534 -1.95262,0 -3.53553,-1.582912 -3.53553,-3.535534 0,-1.952621 1.58291,-3.535534 3.53553,-3.535534 1.95262,0 3.53554,1.582913 3.53554,3.535534 z" />
      <path
         transform="matrix(0.93565394,0.35291884,-0.35291884,0.93565394,40.827332,-39.779461)"
         sodipodi:type="arc"
         style="fill:#000000;fill-opacity:1;stroke:#000000;stroke-width:0.5;stroke-linecap:square;stroke-linejoin:round;stroke-miterlimit:4;stroke-opacity:1;stroke-dasharray:none;stroke-dashoffset:0"
         id="path13928"
         sodipodi:cx="266.1752"
         sodipodi:cy="46.755325"
         sodipodi:rx="3.5355339"
         sodipodi:ry="3.5355339"
         d="m 269.71074,46.755325 c 0,1.952622 -1.58292,3.535534 -3.53554,3.535534 -1.95262,0 -3.53553,-1.582912 -3.53553,-3.535534 0,-1.952621 1.58291,-3.535534 3.53553,-3.535534 1.95262,0 3.53554,1.582913 3.53554,3.535534 z" />
      <path
         transform="matrix(0.93565394,0.35291884,-0.35291884,0.93565394,69.016001,-39.779481)"
         sodipodi:type="arc"
         style="fill:#000000;fill-opacity:1;stroke:#000000;stroke-width:0.5;stroke-linecap:square;stroke-linejoin:round;stroke-miterlimit:4;stroke-opacity:1;stroke-dasharray:none;stroke-dashoffset:0"
         id="path13930"
         sodipodi:cx="266.1752"
         sodipodi:cy="46.755325"
         sodipodi:rx="3.5355339"
         sodipodi:ry="3.5355339"
         d="m 269.71074,46.755325 c 0,1.952622 -1.58292,3.535534 -3.53554,3.535534 -1.95262,0 -3.53553,-1.582912 -3.53553,-3.535534 0,-1.952621 1.58291,-3.535534 3.53553,-3.535534 1.95262,0 3.53554,1.582913 3.53554,3.535534 z" />
      <path
         transform="matrix(0.93565394,0.35291884,-0.35291884,0.93565394,97.20466,-39.779481)"
         sodipodi:type="arc"
         style="fill:#000000;fill-opacity:1;stroke:#000000;stroke-width:0.5;stroke-linecap:square;stroke-linejoin:round;stroke-miterlimit:4;stroke-opacity:1;stroke-dasharray:none;stroke-dashoffset:0"
         id="path13932"
         sodipodi:cx="266.1752"
         sodipodi:cy="46.755325"
         sodipodi:rx="3.5355339"
         sodipodi:ry="3.5355339"
         d="m 269.71074,46.755325 c 0,1.952622 -1.58292,3.535534 -3.53554,3.535534 -1.95262,0 -3.53553,-1.582912 -3.53553,-3.535534 0,-1.952621 1.58291,-3.535534 3.53553,-3.535534 1.95262,0 3.53554,1.582913 3.53554,3.535534 z" />
    </g>
    <path
       style="fill:none;stroke:#000000;stroke-width:0.70481199px;stroke-linecap:butt;stroke-linejoin:miter;stroke-opacity:1;marker-end:url(#Arrow1Lend)"
       d="m 192.85498,74.631689 c 0,0 -29.19935,-4.027496 -42.28872,12.08249"
       id="path14009"
       inkscape:export-filename="/Users/juliangethmann/Documents/uni-ka/phy/ph5/ex5script09/images/2009-11-05-drehkristall-verfahren.png"
       inkscape:export-xdpi="90"
       inkscape:export-ydpi="90" />
  </g>
</svg>
