<?xml version="1.0" encoding="UTF-8" standalone="no"?>
<!-- Created with Inkscape (http://www.inkscape.org/) -->

<svg
   xmlns:dc="http://purl.org/dc/elements/1.1/"
   xmlns:cc="http://creativecommons.org/ns#"
   xmlns:rdf="http://www.w3.org/1999/02/22-rdf-syntax-ns#"
   xmlns:svg="http://www.w3.org/2000/svg"
   xmlns="http://www.w3.org/2000/svg"
   xmlns:sodipodi="http://sodipodi.sourceforge.net/DTD/sodipodi-0.dtd"
   xmlns:inkscape="http://www.inkscape.org/namespaces/inkscape"
   width="210mm"
   height="297mm"
   id="svg2931"
   version="1.1"
   inkscape:version="0.47pre2 r22153"
   sodipodi:docname="2009-11-03-2-beugung.svg">
  <defs
     id="defs2933">
    <marker
       inkscape:stockid="Arrow1Lstart"
       orient="auto"
       refY="0.0"
       refX="0.0"
       id="Arrow1Lstart"
       style="overflow:visible">
      <path
         id="path3780"
         d="M 0.0,0.0 L 5.0,-5.0 L -12.5,0.0 L 5.0,5.0 L 0.0,0.0 z "
         style="fill-rule:evenodd;stroke:#000000;stroke-width:1.0pt;marker-start:none"
         transform="scale(0.8) translate(12.5,0)" />
    </marker>
    <marker
       inkscape:stockid="Arrow1Send"
       orient="auto"
       refY="0.0"
       refX="0.0"
       id="Arrow1Send"
       style="overflow:visible;">
      <path
         id="path3795"
         d="M 0.0,0.0 L 5.0,-5.0 L -12.5,0.0 L 5.0,5.0 L 0.0,0.0 z "
         style="fill-rule:evenodd;stroke:#000000;stroke-width:1.0pt;marker-start:none;"
         transform="scale(0.2) rotate(180) translate(6,0)" />
    </marker>
    <marker
       inkscape:stockid="Arrow1Lend"
       orient="auto"
       refY="0.0"
       refX="0.0"
       id="Arrow1Lend"
       style="overflow:visible;">
      <path
         id="path3783"
         d="M 0.0,0.0 L 5.0,-5.0 L -12.5,0.0 L 5.0,5.0 L 0.0,0.0 z "
         style="fill-rule:evenodd;stroke:#000000;stroke-width:1.0pt;marker-start:none;"
         transform="scale(0.8) rotate(180) translate(12.5,0)" />
    </marker>
    <inkscape:perspective
       sodipodi:type="inkscape:persp3d"
       inkscape:vp_x="0 : 526.18109 : 1"
       inkscape:vp_y="0 : 1000 : 0"
       inkscape:vp_z="744.09448 : 526.18109 : 1"
       inkscape:persp3d-origin="372.04724 : 350.78739 : 1"
       id="perspective2939" />
    <inkscape:perspective
       id="perspective2953"
       inkscape:persp3d-origin="0.5 : 0.33333333 : 1"
       inkscape:vp_z="1 : 0.5 : 1"
       inkscape:vp_y="0 : 1000 : 0"
       inkscape:vp_x="0 : 0.5 : 1"
       sodipodi:type="inkscape:persp3d" />
    <inkscape:perspective
       id="perspective4605"
       inkscape:persp3d-origin="0.5 : 0.33333333 : 1"
       inkscape:vp_z="1 : 0.5 : 1"
       inkscape:vp_y="0 : 1000 : 0"
       inkscape:vp_x="0 : 0.5 : 1"
       sodipodi:type="inkscape:persp3d" />
    <marker
       inkscape:stockid="Arrow1Send"
       orient="auto"
       refY="0"
       refX="0"
       id="Arrow1Send-9"
       style="overflow:visible">
      <path
         id="path3795-3"
         d="M 0,0 5,-5 -12.5,0 5,5 0,0 z"
         style="fill-rule:evenodd;stroke:#000000;stroke-width:1pt;marker-start:none"
         transform="matrix(-0.2,0,0,-0.2,-1.2,0)" />
    </marker>
    <inkscape:perspective
       id="perspective4605-0"
       inkscape:persp3d-origin="0.5 : 0.33333333 : 1"
       inkscape:vp_z="1 : 0.5 : 1"
       inkscape:vp_y="0 : 1000 : 0"
       inkscape:vp_x="0 : 0.5 : 1"
       sodipodi:type="inkscape:persp3d" />
    <marker
       inkscape:stockid="Arrow1Send"
       orient="auto"
       refY="0"
       refX="0"
       id="Arrow1Send-2"
       style="overflow:visible">
      <path
         id="path3795-4"
         d="M 0,0 5,-5 -12.5,0 5,5 0,0 z"
         style="fill-rule:evenodd;stroke:#000000;stroke-width:1pt;marker-start:none"
         transform="matrix(-0.2,0,0,-0.2,-1.2,0)" />
    </marker>
    <inkscape:perspective
       id="perspective5444"
       inkscape:persp3d-origin="0.5 : 0.33333333 : 1"
       inkscape:vp_z="1 : 0.5 : 1"
       inkscape:vp_y="0 : 1000 : 0"
       inkscape:vp_x="0 : 0.5 : 1"
       sodipodi:type="inkscape:persp3d" />
    <marker
       inkscape:stockid="Arrow1Send"
       orient="auto"
       refY="0"
       refX="0"
       id="Arrow1Send-90"
       style="overflow:visible">
      <path
         id="path3795-5"
         d="M 0,0 5,-5 -12.5,0 5,5 0,0 z"
         style="fill-rule:evenodd;stroke:#000000;stroke-width:1pt;marker-start:none"
         transform="matrix(-0.2,0,0,-0.2,-1.2,0)" />
    </marker>
    <inkscape:perspective
       id="perspective5444-2"
       inkscape:persp3d-origin="0.5 : 0.33333333 : 1"
       inkscape:vp_z="1 : 0.5 : 1"
       inkscape:vp_y="0 : 1000 : 0"
       inkscape:vp_x="0 : 0.5 : 1"
       sodipodi:type="inkscape:persp3d" />
    <marker
       inkscape:stockid="Arrow1Send"
       orient="auto"
       refY="0"
       refX="0"
       id="Arrow1Send-7"
       style="overflow:visible">
      <path
         id="path3795-37"
         d="M 0,0 5,-5 -12.5,0 5,5 0,0 z"
         style="fill-rule:evenodd;stroke:#000000;stroke-width:1pt;marker-start:none"
         transform="matrix(-0.2,0,0,-0.2,-1.2,0)" />
    </marker>
    <inkscape:perspective
       id="perspective5503"
       inkscape:persp3d-origin="0.5 : 0.33333333 : 1"
       inkscape:vp_z="1 : 0.5 : 1"
       inkscape:vp_y="0 : 1000 : 0"
       inkscape:vp_x="0 : 0.5 : 1"
       sodipodi:type="inkscape:persp3d" />
    <marker
       inkscape:stockid="Arrow1Send"
       orient="auto"
       refY="0"
       refX="0"
       id="Arrow1Send-0"
       style="overflow:visible">
      <path
         id="path3795-2"
         d="M 0,0 5,-5 -12.5,0 5,5 0,0 z"
         style="fill-rule:evenodd;stroke:#000000;stroke-width:1pt;marker-start:none"
         transform="matrix(-0.2,0,0,-0.2,-1.2,0)" />
    </marker>
  </defs>
  <sodipodi:namedview
     id="base"
     pagecolor="#ffffff"
     bordercolor="#666666"
     borderopacity="1.0"
     inkscape:pageopacity="0.0"
     inkscape:pageshadow="2"
     inkscape:zoom="0.98994949"
     inkscape:cx="196.12221"
     inkscape:cy="977.95647"
     inkscape:document-units="px"
     inkscape:current-layer="layer1"
     showgrid="false"
     inkscape:window-width="1280"
     inkscape:window-height="752"
     inkscape:window-x="0"
     inkscape:window-y="0"
     inkscape:window-maximized="1" />
  <metadata
     id="metadata2936">
    <rdf:RDF>
      <cc:Work
         rdf:about="">
        <dc:format>image/svg+xml</dc:format>
        <dc:type
           rdf:resource="http://purl.org/dc/dcmitype/StillImage" />
        <dc:title></dc:title>
      </cc:Work>
    </rdf:RDF>
  </metadata>
  <g
     inkscape:label="Ebene 1"
     inkscape:groupmode="layer"
     id="layer1">
    <path
       style="fill:none;stroke:#000000;stroke-width:1px;stroke-linecap:butt;stroke-linejoin:miter;stroke-opacity:1;marker-mid:none;marker-start:none"
       d="M 420,118.79075 489.28571,129.50504 282.85714,51.647896 64.285714,135.21932 119.28571,125.93361"
       id="path2941"
       inkscape:export-filename="/Users/juliangethmann/Documents/uni-ka/phy/ph5/ex5script09/images/2009-11-03-2-beugung.png"
       inkscape:export-xdpi="90"
       inkscape:export-ydpi="90" />
    <path
       style="fill:none;stroke:#000000;stroke-width:1px;stroke-linecap:butt;stroke-linejoin:miter;stroke-opacity:1"
       d="m 230.71429,115.21932 52.14286,-23.571424 0,-40"
       id="path2943"
       inkscape:export-filename="/Users/juliangethmann/Documents/uni-ka/phy/ph5/ex5script09/images/2009-11-03-2-beugung.png"
       inkscape:export-xdpi="90"
       inkscape:export-ydpi="90" />
    <path
       style="fill:none;stroke:#000000;stroke-width:1px;stroke-linecap:butt;stroke-linejoin:miter;stroke-opacity:1"
       d="m 335.35714,115.57646 -52.14286,-23.571417 0,-40.000002"
       id="path2943-7"
       inkscape:export-filename="/Users/juliangethmann/Documents/uni-ka/phy/ph5/ex5script09/images/2009-11-03-2-beugung.png"
       inkscape:export-xdpi="90"
       inkscape:export-ydpi="90" />
    <path
       style="fill:none;stroke:#000000;stroke-width:1px;stroke-linecap:butt;stroke-linejoin:miter;stroke-opacity:1"
       d="m 232.85714,106.29075 c -0.23809,0.2381 -0.43412,0.52751 -0.71428,0.71429 -0.0991,0.066 -0.25067,-0.0532 -0.35715,0 -0.15058,0.0753 -0.21706,0.26375 -0.35714,0.35714 -0.22149,0.14766 -0.49279,0.20948 -0.71428,0.35714 -0.14009,0.0934 -0.2381,0.2381 -0.35715,0.35715 -0.23809,0.23809 -0.47619,0.47619 -0.71428,0.71428 -0.11905,0.11905 -0.2381,0.2381 -0.35715,0.35715 -0.11904,0.11904 -0.3039,0.19742 -0.35714,0.35714 -0.0753,0.22588 0,0.47619 0,0.71428 0,0.11905 0.066,0.25809 0,0.35715 -0.23809,0.23809 -0.47619,0.47619 -0.71428,0.71428 0,0.11905 0.0532,0.25067 0,0.35715 -0.0753,0.15058 -0.28185,0.20655 -0.35715,0.35714 -0.0532,0.10648 0,0.23809 0,0.35714 0,0.11905 0,0.2381 0,0.35714 0,0.32192 -0.0749,1.56093 0,1.78572 0.0842,0.25254 0.19743,0.50133 0.35715,0.71428 0.20203,0.26938 0.51225,0.44492 0.71428,0.71429 0.261,0.34799 0.27734,0.85296 0.71429,1.07143 0.72027,0.36013 1.16159,0.24619 1.78571,0.71428 0.93024,0.69769 0.3912,0.72564 1.42857,1.07143 0.22588,0.0753 0.54593,-0.16836 0.71429,0 0.0842,0.0842 -0.0842,0.27297 0,0.35715 0.18823,0.18823 0.52605,0.16891 0.71428,0.35714 0.18824,0.18823 0.19743,0.50133 0.35715,0.71428 0.20203,0.26938 0.47619,0.47619 0.71428,0.71429 0.2381,0.23809 0.47619,0.47619 0.71429,0.71429 0.23809,0.23809 0.44491,0.51225 0.71428,0.71428 0.21296,0.15972 0.52606,0.16891 0.71429,0.35714 0.0842,0.0842 -0.0532,0.25067 0,0.35715 0.0753,0.15058 0.3039,0.19742 0.35714,0.35714 0.11294,0.33882 0,0.71429 0,1.07143 0,1.74643 0.30667,1.93791 -0.71428,3.57143 -0.31548,0.50476 -0.71429,0.95238 -1.07143,1.42857 -0.35714,0.47619 -0.67597,0.98368 -1.07143,1.42857 -0.55926,0.62916 -1.23139,1.1522 -1.78571,1.78571 -3.48058,3.97781 2.51464,-2.1575 -1.78572,2.14286 -0.23809,0.2381 -0.43412,0.52751 -0.71428,0.71429 -0.0991,0.066 -0.30391,-0.10648 -0.35715,0 -0.10648,0.21296 0.10648,0.50132 0,0.71428 -0.0532,0.10648 -0.23809,0 -0.35714,0 -0.11905,0 -0.23809,0 -0.35714,0 -0.0997,0 -2.21781,0 -1.07143,0"
       id="path2969"
       inkscape:export-filename="/Users/juliangethmann/Documents/uni-ka/phy/ph5/ex5script09/images/2009-11-03-2-beugung.png"
       inkscape:export-xdpi="90"
       inkscape:export-ydpi="90" />
    <path
       style="fill:none;stroke:#000000;stroke-width:1px;stroke-linecap:butt;stroke-linejoin:miter;stroke-opacity:1"
       d="m 338.21429,107.71932 c -0.11905,0 -0.2381,0 -0.35715,0 0,0.11905 0.1155,0.32827 0,0.35715 -0.46197,0.11549 -0.9666,-0.1155 -1.42857,0 -0.11549,0.0289 0.0842,0.27296 0,0.35714 -0.18823,0.18823 -0.50132,0.19742 -0.71428,0.35714 -0.0137,0.0103 -1.40358,1.35359 -1.42858,1.42857 -0.0753,0.22588 0.13208,0.51618 0,0.71429 -0.14766,0.22149 -0.52605,0.16891 -0.71428,0.35714 -0.0842,0.0842 0.0842,0.27297 0,0.35715 -0.0842,0.0842 -0.3039,-0.10648 -0.35714,0 -0.10648,0.21295 0,0.47619 0,0.71428 0,0.71429 0,1.42857 0,2.14286 0,0.14118 -0.0763,1.63318 0,1.78571 0.0753,0.15059 0.28185,0.20656 0.35714,0.35715 0.0532,0.10647 -0.0532,0.25066 0,0.35714 0.15058,0.30117 0.52751,0.43412 0.71428,0.71428 0.14767,0.22149 0.20949,0.4928 0.35715,0.71429 0.0934,0.14008 0.26375,0.21706 0.35714,0.35714 0.14766,0.22149 0.2381,0.47619 0.35714,0.71429 0.11905,0.23809 0.27297,0.46175 0.35715,0.71428 0.0499,0.14981 0.0221,2.0876 0,2.14286 -0.15942,0.39853 -0.49345,0.70337 -0.71429,1.07143 -0.27392,0.45653 -0.47619,0.95238 -0.71429,1.42857 -0.11904,0.2381 -0.27296,0.46175 -0.35714,0.71429 -0.0376,0.11294 0.0842,0.27296 0,0.35714 -0.0842,0.0842 -0.25066,-0.0532 -0.35714,0 -0.15059,0.0753 -0.28185,0.20656 -0.35714,0.35714 -0.0532,0.10648 0.10648,0.30391 0,0.35715 -0.21296,0.10647 -0.4833,-0.0578 -0.71429,0 -0.5165,0.12912 -0.91207,0.58516 -1.42857,0.71428 -0.23099,0.0577 -0.47619,0 -0.71429,0 -0.47619,0.11905 -0.96291,0.20192 -1.42857,0.35714 -0.50507,0.16836 -0.91207,0.58516 -1.42857,0.71429 -0.36996,0.0925 -1.01905,0 -1.42857,0"
       id="path2971"
       inkscape:export-filename="/Users/juliangethmann/Documents/uni-ka/phy/ph5/ex5script09/images/2009-11-03-2-beugung.png"
       inkscape:export-xdpi="90"
       inkscape:export-ydpi="90" />
    <path
       style="fill:none;stroke:#000000;stroke-width:1px;stroke-linecap:butt;stroke-linejoin:miter;stroke-opacity:1"
       d="m 421.07143,112.00504 c -1.42857,0 0.59524,-0.11905 -0.35714,0.35714 -0.3553,0.17765 -1.00078,-0.1413 -1.07143,0 -0.10648,0.21296 0.0753,0.48841 0,0.71429 -0.0532,0.15972 -0.28185,0.20656 -0.35715,0.35714 -0.0532,0.10648 0.0842,0.27296 0,0.35714 -0.0842,0.0842 -0.27296,-0.0842 -0.35714,0 -0.18823,0.18823 -0.27296,0.46175 -0.35714,0.71429 -0.0377,0.11294 0.0842,0.27296 0,0.35714 -0.0842,0.0842 -0.27296,-0.0842 -0.35714,0 -0.0842,0.0842 0,0.2381 0,0.35714 0,0.11905 0,0.2381 0,0.35715 0,1.54762 0,3.09523 0,4.64285 0,0.47619 0,0.95238 0,1.42858 0,0.11904 -0.10648,0.3039 0,0.35714 0.21296,0.10648 0.54592,-0.16836 0.71428,0 0.16836,0.16836 0,0.47619 0,0.71428 0,0.71429 0,1.42858 0,2.14286 0,0.0849 0.04,1.34853 0,1.42857 -0.0753,0.15059 -0.23809,0.2381 -0.35714,0.35715 -0.11905,0.11904 -0.21706,0.26375 -0.35714,0.35714 -0.22149,0.14766 -0.47619,0.23809 -0.71429,0.35714 -0.47619,0.2381 -0.93425,0.51656 -1.42857,0.71429 -0.34954,0.13981 -0.70621,0.26583 -1.07143,0.35714 -0.11549,0.0289 -0.25809,-0.066 -0.35714,0 -0.28017,0.18678 -0.41312,0.5637 -0.71429,0.71429 -0.21296,0.10647 -0.47619,0 -0.71428,0 -0.2381,0 -0.47619,0 -0.71429,0"
       id="path2973"
       inkscape:export-filename="/Users/juliangethmann/Documents/uni-ka/phy/ph5/ex5script09/images/2009-11-03-2-beugung.png"
       inkscape:export-xdpi="90"
       inkscape:export-ydpi="90" />
    <path
       style="fill:none;stroke:#000000;stroke-width:1px;stroke-linecap:butt;stroke-linejoin:miter;stroke-opacity:1"
       d="m 120.71429,119.86218 c 1.59796,-3.19593 0.24078,-0.39027 -0.35715,0.35714 -0.0744,0.093 -0.27296,-0.0842 -0.35714,0 -0.0842,0.0842 0,0.2381 0,0.35715 0,0.11904 0,0.23809 0,0.35714 0,0.11905 0,0.47619 0,0.35714 0,-0.23809 0,-0.95238 0,-0.71428 0,0.35714 0.07,0.72122 0,1.07143 -0.0522,0.26102 -0.27296,0.46174 -0.35714,0.71428 -0.0376,0.11294 0,0.2381 0,0.35714 0,0.2381 0,0.47619 0,0.71429 0,0.71429 0,1.42857 0,2.14286 0,0.11904 -0.0842,0.27296 0,0.35714 0.0842,0.0842 0.27296,-0.0842 0.35714,0 0.0842,0.0842 -0.0842,0.27296 0,0.35714 0.0842,0.0842 0.3039,-0.10648 0.35714,0 0.10648,0.21296 0,0.47619 0,0.71429 0,0.11905 -0.066,0.25809 0,0.35714 0.28017,0.42025 0.71429,0.71429 1.07143,1.07143 0.18802,0.18802 0.88069,0.97606 1.07143,1.07143 0.10648,0.0532 0.3039,-0.10648 0.35714,0 0.10648,0.21296 -0.10648,0.50133 0,0.71428 0.0532,0.10648 0.2381,0 0.35715,0 0,0.2381 -0.0753,0.48841 0,0.71429 0.0532,0.15972 0.28185,0.20656 0.35714,0.35714 0.0532,0.10648 0,0.2381 0,0.35715 0.11905,0.23809 0.20948,0.49279 0.35714,0.71428 0.0934,0.14008 0.3039,0.19742 0.35714,0.35714 0.064,0.19201 0,1.1262 0,1.42858 0,0.11904 0,0.23809 0,0.35714 0,0.11905 0.0842,0.27296 0,0.35714 -0.18823,0.18823 -0.47619,0.2381 -0.71428,0.35714 -0.2381,0.11905 -0.47619,0.2381 -0.71429,0.35715 -0.47619,0.23809 -0.91666,0.56802 -1.42857,0.71428 -0.3434,0.0981 -0.72122,-0.07 -1.07143,0 -0.26103,0.0522 -0.46712,0.25828 -0.71428,0.35715 -0.34954,0.13981 -0.7219,0.21732 -1.07143,0.35714 -0.49432,0.19773 -0.91207,0.58516 -1.42857,0.71428 -0.23099,0.0577 -0.47619,0 -0.71429,0 -0.11905,0 -0.25066,-0.0532 -0.35714,0 -0.15059,0.0753 -0.20656,0.28185 -0.35714,0.35715 -0.21296,0.10648 -0.54593,-0.16836 -0.71429,0 -0.0842,0.0842 0.10648,0.3039 0,0.35714 -0.31944,0.15972 -0.71429,0 -1.07143,0"
       id="path2975"
       inkscape:export-filename="/Users/juliangethmann/Documents/uni-ka/phy/ph5/ex5script09/images/2009-11-03-2-beugung.png"
       inkscape:export-xdpi="90"
       inkscape:export-ydpi="90" />
    <text
       xml:space="preserve"
       style="font-size:20px;font-style:normal;font-variant:normal;font-weight:normal;font-stretch:normal;fill:#000000;fill-opacity:1;stroke:none;font-family:Sans;-inkscape-font-specification:Helvetica"
       x="84.285713"
       y="117.00504"
       id="text2977"
       inkscape:export-filename="/Users/juliangethmann/Documents/uni-ka/phy/ph5/ex5script09/images/2009-11-03-2-beugung.png"
       inkscape:export-xdpi="90"
       inkscape:export-ydpi="90"><tspan
         sodipodi:role="line"
         id="tspan2979"
         x="84.285713"
         y="117.00504">k</tspan></text>
    <text
       xml:space="preserve"
       style="font-size:20px;font-style:normal;font-variant:normal;font-weight:normal;font-stretch:normal;fill:#000000;fill-opacity:1;stroke:none;font-family:Sans;-inkscape-font-specification:Helvetica"
       x="35"
       y="154.14789"
       id="text2981"
       inkscape:export-filename="/Users/juliangethmann/Documents/uni-ka/phy/ph5/ex5script09/images/2009-11-03-2-beugung.png"
       inkscape:export-xdpi="90"
       inkscape:export-ydpi="90"><tspan
         sodipodi:role="line"
         id="tspan2983"
         x="35"
         y="154.14789">Quelle</tspan><tspan
         sodipodi:role="line"
         x="35"
         y="179.14789"
         id="tspan2985">Q</tspan></text>
    <text
       xml:space="preserve"
       style="font-size:20px;font-style:normal;font-variant:normal;font-weight:normal;font-stretch:normal;fill:#000000;fill-opacity:1;stroke:none;font-family:Sans;-inkscape-font-specification:Helvetica"
       x="132.5"
       y="162.71931"
       id="text2987"
       inkscape:export-filename="/Users/juliangethmann/Documents/uni-ka/phy/ph5/ex5script09/images/2009-11-03-2-beugung.png"
       inkscape:export-xdpi="90"
       inkscape:export-ydpi="90"><tspan
         sodipodi:role="line"
         id="tspan2989"
         x="132.5"
         y="162.71931">R</tspan></text>
    <text
       xml:space="preserve"
       style="font-size:20px;font-style:normal;font-variant:normal;font-weight:normal;font-stretch:normal;fill:#000000;fill-opacity:1;stroke:none;font-family:Sans;-inkscape-font-specification:Helvetica"
       x="145.35713"
       y="166.64789"
       id="text2991"
       inkscape:export-filename="/Users/juliangethmann/Documents/uni-ka/phy/ph5/ex5script09/images/2009-11-03-2-beugung.png"
       inkscape:export-xdpi="90"
       inkscape:export-ydpi="90"><tspan
         sodipodi:role="line"
         id="tspan2993"
         x="145.35713"
         y="166.64789"
         style="font-size:10px">Q</tspan></text>
    <text
       xml:space="preserve"
       style="font-size:20px;font-style:normal;font-variant:normal;font-weight:normal;font-stretch:normal;fill:#000000;fill-opacity:1;stroke:none;font-family:Sans;-inkscape-font-specification:Helvetica"
       x="167.14285"
       y="150.57648"
       id="text2995"
       inkscape:export-filename="/Users/juliangethmann/Documents/uni-ka/phy/ph5/ex5script09/images/2009-11-03-2-beugung.png"
       inkscape:export-xdpi="90"
       inkscape:export-ydpi="90"><tspan
         sodipodi:role="line"
         id="tspan2997"
         x="167.14285"
         y="150.57648" /></text>
    <text
       xml:space="preserve"
       style="font-size:20px;font-style:normal;font-variant:normal;font-weight:normal;font-stretch:normal;fill:#000000;fill-opacity:1;stroke:none;font-family:Sans;-inkscape-font-specification:Helvetica"
       x="94.285713"
       y="120.93361"
       id="text2999"
       inkscape:export-filename="/Users/juliangethmann/Documents/uni-ka/phy/ph5/ex5script09/images/2009-11-03-2-beugung.png"
       inkscape:export-xdpi="90"
       inkscape:export-ydpi="90"><tspan
         sodipodi:role="line"
         id="tspan3001"
         x="94.285713"
         y="120.93361"
         style="font-size:10px">0</tspan></text>
    <path
       style="fill:none;stroke:#000000;stroke-width:1px;stroke-linecap:butt;stroke-linejoin:miter;stroke-opacity:1;marker-end:url(#Arrow1Send)"
       d="m 85.714286,98.790753 10,0"
       id="path3003"
       inkscape:export-filename="/Users/juliangethmann/Documents/uni-ka/phy/ph5/ex5script09/images/2009-11-03-2-beugung.png"
       inkscape:export-xdpi="90"
       inkscape:export-ydpi="90" />
    <path
       style="fill:none;stroke:#000000;stroke-width:1px;stroke-linecap:butt;stroke-linejoin:miter;stroke-opacity:1;marker-end:url(#Arrow1Send)"
       d="m 134.5375,145.57647 10,0"
       id="path3003-8"
       inkscape:export-filename="/Users/juliangethmann/Documents/uni-ka/phy/ph5/ex5script09/images/2009-11-03-2-beugung.png"
       inkscape:export-xdpi="90"
       inkscape:export-ydpi="90" />
    <path
       style="fill:none;stroke:#000000;stroke-width:1px;stroke-linecap:butt;stroke-linejoin:miter;stroke-opacity:1;marker-end:url(#Arrow1Send)"
       d="m 286.68036,72.362181 10,0"
       id="path3003-83"
       inkscape:export-filename="/Users/juliangethmann/Documents/uni-ka/phy/ph5/ex5script09/images/2009-11-03-2-beugung.png"
       inkscape:export-xdpi="90"
       inkscape:export-ydpi="90" />
    <text
       xml:space="preserve"
       style="font-size:20px;font-style:normal;font-variant:normal;font-weight:normal;font-stretch:normal;fill:#000000;fill-opacity:1;stroke:none;font-family:Sans;-inkscape-font-specification:Helvetica"
       x="287.85715"
       y="86.290749"
       id="text4638"
       inkscape:export-filename="/Users/juliangethmann/Documents/uni-ka/phy/ph5/ex5script09/images/2009-11-03-2-beugung.png"
       inkscape:export-xdpi="90"
       inkscape:export-ydpi="90"><tspan
         sodipodi:role="line"
         id="tspan4640"
         x="287.85715"
         y="86.290749">r</tspan></text>
    <text
       xml:space="preserve"
       style="font-size:20px;font-style:normal;font-variant:normal;font-weight:normal;font-stretch:normal;fill:#000000;fill-opacity:1;stroke:none;font-family:Sans;-inkscape-font-specification:Helvetica"
       x="277.5"
       y="47.362179"
       id="text4642"
       inkscape:export-filename="/Users/juliangethmann/Documents/uni-ka/phy/ph5/ex5script09/images/2009-11-03-2-beugung.png"
       inkscape:export-xdpi="90"
       inkscape:export-ydpi="90"><tspan
         sodipodi:role="line"
         id="tspan4644"
         x="277.5"
         y="47.362179">P</tspan></text>
    <text
       xml:space="preserve"
       style="font-size:20px;font-style:normal;font-variant:normal;font-weight:normal;font-stretch:normal;fill:#000000;fill-opacity:1;stroke:none;font-family:Sans;-inkscape-font-specification:Helvetica"
       x="488.21429"
       y="137.00504"
       id="text4650"
       inkscape:export-filename="/Users/juliangethmann/Documents/uni-ka/phy/ph5/ex5script09/images/2009-11-03-2-beugung.png"
       inkscape:export-xdpi="90"
       inkscape:export-ydpi="90"><tspan
         sodipodi:role="line"
         id="tspan4652"
         x="488.21429"
         y="137.00504">B</tspan></text>
    <text
       xml:space="preserve"
       style="font-size:20px;font-style:normal;font-variant:normal;font-weight:normal;font-stretch:normal;fill:#000000;fill-opacity:1;stroke:none;font-family:Sans;-inkscape-font-specification:Helvetica"
       x="506.07144"
       y="143.79076"
       id="text4654"
       inkscape:export-filename="/Users/juliangethmann/Documents/uni-ka/phy/ph5/ex5script09/images/2009-11-03-2-beugung.png"
       inkscape:export-xdpi="90"
       inkscape:export-ydpi="90"><tspan
         sodipodi:role="line"
         id="tspan4656"
         x="506.07144"
         y="143.79076">Detektor</tspan></text>
    <text
       xml:space="preserve"
       style="font-size:20px;font-style:normal;font-variant:normal;font-weight:normal;font-stretch:normal;fill:#000000;fill-opacity:1;stroke:none;font-family:Sans;-inkscape-font-specification:Helvetica"
       x="277.14285"
       y="110.93361"
       id="text5432"
       inkscape:export-filename="/Users/juliangethmann/Documents/uni-ka/phy/ph5/ex5script09/images/2009-11-03-2-beugung.png"
       inkscape:export-xdpi="90"
       inkscape:export-ydpi="90"><tspan
         sodipodi:role="line"
         id="tspan5434"
         x="277.14285"
         y="110.93361">0</tspan></text>
    <g
       id="g5523"
       transform="translate(-17.172593,7.0710678)"
       inkscape:export-filename="/Users/juliangethmann/Documents/uni-ka/phy/ph5/ex5script09/images/2009-11-03-2-beugung.png"
       inkscape:export-xdpi="90"
       inkscape:export-ydpi="90">
      <text
         id="text4646"
         y="100.21932"
         x="451.07144"
         style="font-size:20px;font-style:normal;font-variant:normal;font-weight:normal;font-stretch:normal;fill:#000000;fill-opacity:1;stroke:none;font-family:Sans;-inkscape-font-specification:Helvetica"
         xml:space="preserve"><tspan
           y="100.21932"
           x="451.07144"
           id="tspan4648"
           sodipodi:role="line">k</tspan></text>
      <path
         id="path3003-83-2"
         d="m 452.75179,82.005038 10,0"
         style="fill:none;stroke:#000000;stroke-width:1px;stroke-linecap:butt;stroke-linejoin:miter;stroke-opacity:1;marker-end:url(#Arrow1Send)" />
    </g>
    <text
       xml:space="preserve"
       style="font-size:20px;font-style:normal;font-variant:normal;font-weight:normal;font-stretch:normal;fill:#000000;fill-opacity:1;stroke:none;font-family:Sans;-inkscape-font-specification:Helvetica"
       x="458.57144"
       y="146.29074"
       id="text4658"
       inkscape:export-filename="/Users/juliangethmann/Documents/uni-ka/phy/ph5/ex5script09/images/2009-11-03-2-beugung.png"
       inkscape:export-xdpi="90"
       inkscape:export-ydpi="90"><tspan
         sodipodi:role="line"
         id="tspan4660"
         x="458.57144"
         y="146.29074">R</tspan></text>
    <text
       xml:space="preserve"
       style="font-size:20px;font-style:normal;font-variant:normal;font-weight:normal;font-stretch:normal;fill:#000000;fill-opacity:1;stroke:none;font-family:Sans;-inkscape-font-specification:Helvetica"
       x="471.42859"
       y="150.57646"
       id="text4662"
       inkscape:export-filename="/Users/juliangethmann/Documents/uni-ka/phy/ph5/ex5script09/images/2009-11-03-2-beugung.png"
       inkscape:export-xdpi="90"
       inkscape:export-ydpi="90"><tspan
         sodipodi:role="line"
         id="tspan4664"
         x="471.42859"
         y="150.57646"
         style="font-size:10px">B</tspan></text>
    <path
       style="fill:none;stroke:#000000;stroke-width:1px;stroke-linecap:butt;stroke-linejoin:miter;stroke-opacity:1;marker-end:url(#Arrow1Send)"
       d="m 459.89465,129.1479 10,0"
       id="path3003-83-9"
       inkscape:export-filename="/Users/juliangethmann/Documents/uni-ka/phy/ph5/ex5script09/images/2009-11-03-2-beugung.png"
       inkscape:export-xdpi="90"
       inkscape:export-ydpi="90" />
    <path
       style="fill:none;stroke:#000000;stroke-width:1px;stroke-linecap:butt;stroke-linejoin:miter;stroke-opacity:1"
       d="m 284.64286,90.93361 c 1.90476,0 3.80952,0 5.71428,0 0.35715,0 0.71788,0.05051 1.07143,0 0.91243,-0.130348 2.67325,-0.712159 3.57143,-1.071429 0.24716,-0.09886 0.47619,-0.238095 0.71429,-0.357143 0.23809,-0.119047 0.50132,-0.197423 0.71428,-0.357143 0.26938,-0.20203 0.44491,-0.512255 0.71429,-0.714285 0.21296,-0.159719 0.52605,-0.168912 0.71428,-0.357143 0.0842,-0.08418 -0.10648,-0.303903 0,-0.357143 0.21296,-0.106479 0.47619,0 0.71429,0 0.23809,-0.238095 0.43412,-0.527508 0.71428,-0.714286 0.0991,-0.06604 0.30391,0.10648 0.35715,0 0.10648,-0.212959 -0.16836,-0.545927 0,-0.714285 0.16836,-0.168359 0.50132,0.106479 0.71428,0 0.30117,-0.150585 0.43412,-0.527509 0.71429,-0.714286 0.099,-0.06604 0.23809,0 0.35714,0 0.2381,-0.119048 0.52606,-0.168912 0.71429,-0.357143 0.72258,-0.722586 0.10363,-1.025194 0.35714,-1.785714 0.0532,-0.159719 0.28185,-0.206559 0.35714,-0.357143 0.0532,-0.10648 -0.066,-0.258089 0,-0.357143 0.18678,-0.280166 0.5637,-0.413116 0.71429,-0.714286 0.10648,-0.212959 0,-0.47619 0,-0.714285 0,-0.483974 -0.0788,-2.26369 0,-2.5 0.16836,-0.505077 0.54593,-0.923496 0.71428,-1.428572 0.0753,-0.225877 0,-0.47619 0,-0.714286 0.11905,-0.238095 0.27297,-0.461747 0.35715,-0.714285 0.0787,-0.236214 0,-1.792013 0,-2.142858 0,-1.190476 0,-2.380952 0,-3.571428 0,-0.833333 -0.10336,-1.673102 0,-2.5 0.0609,-0.487056 0.30294,-0.940728 0.35714,-1.428572 0.0657,-0.591597 -0.12912,-1.20465 0,-1.785714 0.11549,-0.519719 0.56803,-0.916659 0.71429,-1.428571 0.0981,-0.343402 -0.1772,-0.761342 0,-1.071429 0.33411,-0.584705 0.95238,-0.952381 1.42857,-1.428571 0.95238,-0.952381 1.96233,-1.85048 2.85714,-2.857143 0.50643,-0.569733 0.92214,-1.215982 1.42857,-1.785714 0.78296,-0.880831 1.74554,-1.594643 2.5,-2.5 1.90017,-2.280199 -0.31351,-0.267186 1.42857,-1.428572 0.14009,-0.09339 0.2381,-0.238095 0.35715,-0.357143 0.11904,-0.119047 0.28185,-0.206558 0.35714,-0.357143 0.0532,-0.106479 -0.10648,-0.303903 0,-0.357142 0.21296,-0.10648 0.50133,0.106479 0.71428,0 0.10648,-0.05324 0,-0.238096 0,-0.357143 0,-0.119048 0,-0.238095 0,-0.357143 0,-0.714286 0,-1.428572 0,-2.142857 0,-0.119048 0,-0.238095 0,-0.357143 0,-0.119048 0.0532,-0.250664 0,-0.357143 -0.5255,-1.051003 -0.35714,0.554387 -0.35714,-1.071429 0,-1.071428 0.089,-2.146558 0,-3.214285 -0.0601,-0.721637 -0.3016,-1.420852 -0.35714,-2.142857 -0.0639,-0.830879 0,-1.666667 0,-2.5 0,-1.666667 0,-3.333334 0,-5 0,-1.309524 0,-2.619048 0,-3.928572 0,-0.714286 0.0593,-1.431039 0,-2.142857 -0.0601,-0.721637 -0.28509,-1.422313 -0.35714,-2.142857 -0.30007,-3.000673 0.53462,-0.0022 -0.71429,-2.5 -0.0532,-0.10648 0.066,-0.258089 0,-0.357143 -0.6811,-1.021654 -1.33574,-0.823238 -2.14286,-1.428571 -0.26937,-0.202031 -0.44491,-0.512256 -0.71428,-0.714286 -0.62413,-0.468093 -1.06545,-0.354152 -1.78572,-0.714286 -0.38406,-0.192033 -1.25115,-0.937789 -1.78571,-1.071428 -0.23099,-0.05775 -0.48841,0.07529 -0.71429,0 -0.15972,-0.05324 -0.20082,-0.294616 -0.35714,-0.357143 -0.45574,-0.182296 -0.95661,-0.222297 -1.42857,-0.357143 -0.36198,-0.103422 -0.71429,-0.238095 -1.07143,-0.357143 -0.47619,-0.119048 -0.95661,-0.222297 -1.42857,-0.357143 -0.36198,-0.103422 -0.70009,-0.295253 -1.07143,-0.357143 -0.70457,-0.117428 -1.43829,0.117428 -2.14286,0 -0.37134,-0.06189 -0.70227,-0.283312 -1.07143,-0.357143 -0.46694,-0.09339 -0.96162,0.09339 -1.42857,0 -0.36915,-0.07383 -0.69875,-0.303903 -1.07143,-0.357142 -0.4714,-0.06734 -0.95238,0 -1.42857,0 -1.42857,0 -2.85714,0 -4.28571,0 -1.19048,0 -2.38095,0 -3.57143,0 -0.71429,0 -1.43294,-0.07888 -2.14286,0 -5.89728,0.655253 0.4458,-0.02216 -2.5,0.714285 -0.23098,0.05775 -0.48081,-0.04669 -0.71428,0 -0.36915,0.07383 -0.71429,0.238096 -1.07143,0.357143 -0.71429,0.238095 -1.4189,0.507442 -2.14286,0.714286 -4.07473,1.164208 0.30548,-0.265049 -2.14286,0.714286 -0.34953,0.139814 -0.73471,0.188784 -1.07142,0.357142 -1.74798,0.873988 -0.45697,0.432013 -1.78572,1.428572 -0.21296,0.159719 -0.49279,0.209482 -0.71428,0.357143 -0.14009,0.09339 -0.21706,0.263754 -0.35715,0.357143 -0.22149,0.14766 -0.52605,0.168912 -0.71428,0.357142 -0.0842,0.08418 0.0532,0.250664 0,0.357143 -0.39483,0.789663 -0.22166,0.110829 -0.71429,0.357143 -0.15058,0.07529 -0.23809,0.238095 -0.35714,0.357143 -0.2381,0.238095 -0.52751,0.43412 -0.71429,0.714286 -0.066,0.09905 0.10648,0.303903 0,0.357143 -0.21296,0.106479 -0.50132,-0.10648 -0.71428,0 -0.10648,0.05324 0.10648,0.303903 0,0.357142 -0.68141,0.340706 -0.68822,-0.409274 -1.07143,0.357143 -0.0532,0.10648 0.0532,0.250664 0,0.357143 -0.0753,0.150585 -0.26376,0.21706 -0.35714,0.357143 -0.14766,0.221491 -0.2381,0.47619 -0.35715,0.714286 -0.11904,0.238095 -0.27296,0.461747 -0.35714,0.714285 -0.0376,0.112939 0,0.238096 0,0.357143 -0.11905,0.357143 -0.21733,0.721893 -0.35714,1.071429 -0.0989,0.247159 -0.27297,0.461747 -0.35715,0.714286 -0.0376,0.112938 0,0.238095 0,0.357142 0,0.238096 0,0.476191 0,0.714286 0,0.595238 0,1.190476 0,1.785714 0,0.476191 0.0783,0.95886 0,1.428572 -0.0438,0.262577 -0.29258,0.456035 -0.35714,0.714286 -0.0809,0.323766 0,1.370832 0,1.785714 0,1.190476 0,2.380952 0,3.571428 0,1.309524 0,2.619048 0,3.928572 0,0.247392 -0.0786,1.946394 0,2.142857 0.19773,0.494318 0.51656,0.934253 0.71429,1.428571 0.0442,0.110533 0,0.238096 0,0.357143 0.23809,0.476191 0.43211,0.9771 0.71428,1.428572 3.05929,4.894859 -0.77908,-1.590711 2.14286,2.5 0.30945,0.433229 0.41897,0.98559 0.71429,1.428571 0.18677,0.280166 0.47619,0.476191 0.71428,0.714286 0.2381,0.238095 0.47619,0.47619 0.71429,0.714286 0.11905,0.119047 0.32412,0.192053 0.35714,0.357142 0.0934,0.466944 -0.0673,0.957167 0,1.428572 0.0532,0.372678 0.28331,0.702277 0.35714,1.071428 0.0467,0.233472 0,0.476191 0,0.714286 0,0.119048 -0.0532,0.250664 0,0.357143 0.0753,0.150585 0.28185,0.206558 0.35715,0.357143 0.0532,0.106479 0,0.238095 0,0.357143 0,0.357143 0,0.714285 0,1.071428 0,0.476191 0,0.952381 0,1.428572 0,0.238095 0,0.47619 0,0.714285 0,0.119048 -0.0376,0.244205 0,0.357143 0.0842,0.252538 0.27296,0.461748 0.35714,0.714286 0.0753,0.225877 0,0.476191 0,0.714286 0,0.833333 0,1.666666 0,2.5 0,0.833333 0,1.666666 0,2.5 0,0.357143 0.07,0.721221 0,1.071428 -0.0738,0.369151 -0.28331,0.702278 -0.35714,1.071429 -0.0467,0.233472 0,0.47619 0,0.714286 0,1.071428 0,2.142857 0,3.214285 0,2.857143 0,5.714286 0,8.571429 0,0.136097 -0.0347,1.751049 0,1.785714 0.17857,0.178572 0.89285,-0.178571 1.07142,0 0.16836,0.168359 -0.10647,0.501327 0,0.714286 0.0753,0.150585 0.28186,0.206558 0.35715,0.357143 0.0532,0.106479 0,0.238095 0,0.357143 0,0.238095 -0.0577,0.483299 0,0.714285 0.0646,0.258251 0.27296,0.461748 0.35714,0.714286 0.0959,0.287743 -0.1205,1.665215 0,1.785714 0.16836,0.168359 0.50133,-0.106479 0.71429,0 0.10648,0.05324 -0.0532,0.250664 0,0.357143 0.0753,0.150585 0.28185,0.206558 0.35714,0.357143 0.0532,0.10648 -0.0842,0.272964 0,0.357143 0.18823,0.188231 0.46175,0.272963 0.71428,0.357143 0.11294,0.03765 0.27297,-0.08418 0.35715,0 0.0842,0.08418 -0.0842,0.272963 0,0.357143 0.0115,0.01148 0.98481,0 1.07143,0 0.23809,0 0.47619,0 0.71428,0 0.11905,0 0.47619,0 0.35714,0 -0.23809,0 -0.95238,0 -0.71428,0 0.47619,0 0.95238,0 1.42857,0 0.11905,0 0.2381,0 0.35714,0 0.11905,0 0.25067,-0.05324 0.35715,0 0.15058,0.07529 0.20655,0.28185 0.35714,0.357143 0.10648,0.05324 0.23809,0 0.35714,0 0.47619,0 0.95238,0 3.21429,-0.357143 z"
       id="path5489"
       inkscape:export-filename="/Users/juliangethmann/Documents/uni-ka/phy/ph5/ex5script09/images/2009-11-03-2-beugung.png"
       inkscape:export-xdpi="90"
       inkscape:export-ydpi="90" />
    <text
       xml:space="preserve"
       style="font-size:20px;font-style:normal;font-variant:normal;font-weight:normal;font-stretch:normal;fill:#000000;fill-opacity:1;stroke:none;font-family:Sans;-inkscape-font-specification:Helvetica"
       x="317.85715"
       y="23.790752"
       id="text5491"
       inkscape:export-filename="/Users/juliangethmann/Documents/uni-ka/phy/ph5/ex5script09/images/2009-11-03-2-beugung.png"
       inkscape:export-xdpi="90"
       inkscape:export-ydpi="90"><tspan
         sodipodi:role="line"
         id="tspan5493"
         x="317.85715"
         y="23.790752">rho(r)</tspan></text>
    <path
       style="fill:none;stroke:#000000;stroke-width:1px;stroke-linecap:butt;stroke-linejoin:miter;stroke-opacity:1;marker-end:url(#Arrow1Send)"
       d="m 358.10893,10.219324 10,0"
       id="path3003-83-3"
       inkscape:export-filename="/Users/juliangethmann/Documents/uni-ka/phy/ph5/ex5script09/images/2009-11-03-2-beugung.png"
       inkscape:export-xdpi="90"
       inkscape:export-ydpi="90" />
    <path
       style="fill:none;stroke:#000000;stroke-width:1px;stroke-linecap:butt;stroke-linejoin:miter;stroke-opacity:1"
       d="m 180.81731,83.625892 8.08122,4.04061 -4.04061,9.091373"
       id="path5528"
       inkscape:export-filename="/Users/juliangethmann/Documents/uni-ka/phy/ph5/ex5script09/images/2009-11-03-2-beugung.png"
       inkscape:export-xdpi="90"
       inkscape:export-ydpi="90" />
  </g>
</svg>
